# xmcd CD database file
#
# Track frame offsets:
#	150
#	21242
#	40195
#	61600
#	82792
#	99600
#	114595
#	135550
#	157352
#	179692
#	198905
#	218220
#	239557
#	260655
#
# Disc length: 3679 seconds
#
# Revision: 1
# Processed by: cddbd v1.5.2PL0 Copyright (c) Steve Scherf et al.
# Submitted via: CDex 1.51
#
DISCID=c60e5d0e
DTITLE=讚美之泉 - 讚美之泉12 - 最珍貴的角落
DYEAR=2007
DGENRE=Gospel
TTITLE0=你的愛 Your Love
TTITLE1=最珍貴的角落 Precious Corner
TTITLE2=專愛 One Love
TTITLE3=只因你 Because of You
TTITLE4=哀哭變為跳舞 Mourning Into Dancing
TTITLE5=我要向高山舉目 Lift My Eyes Up To the Hills
TTITLE6=你使我生命美麗 You Have Made My Life Beautiful
TTITLE7=生命的話語 Speak To Me
TTITLE8=耶穌的愛 The Love of Jesus
TTITLE9=因著十架 By the Cross
TTITLE10=勇敢走出去 Stepping Out
TTITLE11=你永遠活著 Forever You Live
TTITLE12=選擇相信 I Choose To Believe
TTITLE13=神是我們的避難所 You Are the Refuge
EXTD=YEAR: 2007
EXTT0=
EXTT1=
EXTT2=
EXTT3=
EXTT4=
EXTT5=
EXTT6=
EXTT7=
EXTT8=
EXTT9=
EXTT10=
EXTT11=
EXTT12=
EXTT13=
PLAYORDER=
